<svg width="16" height="17" viewBox="0 0 16 17" fill="none" xmlns="http://www.w3.org/2000/svg">
<path d="M16 8.1884C16 10.2909 15.1678 12.2675 13.6569 13.7542C12.1458 15.2409 10.1369 16.0597 8 16.0597C6.50409 16.0597 5.07116 15.6579 3.82756 14.9072L4.74475 14.0048C5.71069 14.5302 6.82037 14.8298 8 14.8298C11.722 14.8298 14.75 11.8505 14.75 8.1884C14.75 7.02776 14.4455 5.93593 13.9115 4.98557L14.8287 4.08314C15.5917 5.30669 16 6.71657 16 8.1884ZM0.910688 16.0333L0.0268125 15.1636L1.91831 13.3026C0.677094 11.8782 0 10.0845 0 8.1884C0 6.08591 0.832156 4.10927 2.34313 2.62256C3.85416 1.1359 5.86312 0.317139 8 0.317139C9.92716 0.317139 11.7502 0.983337 13.1978 2.20458L15.0893 0.34352L15.9732 1.21317L0.910688 16.0333ZM2.80791 12.4273L12.3082 3.07986C11.1385 2.12319 9.63641 1.54702 8 1.54702C4.27803 1.54702 1.25 4.52633 1.25 8.1884C1.25 9.79848 1.83556 11.2764 2.80791 12.4273Z" fill="#777777"/>
</svg>
