<svg width="67" height="50" viewBox="0 0 67 50" fill="none" xmlns="http://www.w3.org/2000/svg">
<mask id="path-1-inside-1" fill="white">
<path d="M40.9998 6.53509L47.5757 0.391215C48.4702 -0.444512 49.9998 0.147386 49.9998 1.32938V17.7467C49.9997 12.4216 45.4867 9.18302 40.9998 6.53509Z"/>
</mask>
<path d="M40.9998 6.53509L47.5757 0.391215C48.4702 -0.444512 49.9998 0.147386 49.9998 1.32938V17.7467C49.9997 12.4216 45.4867 9.18302 40.9998 6.53509Z" fill="#FF7236"/>
<path d="M40.9998 6.53509L47.5757 0.391215C48.4702 -0.444512 49.9998 0.147386 49.9998 1.32938V17.7467C49.9997 12.4216 45.4867 9.18302 40.9998 6.53509Z" stroke="white" stroke-width="2" mask="url(#path-1-inside-1)"/>
<path d="M40.9998 6.53509L47.5757 0.391215C48.4702 -0.444512 49.9998 0.147386 49.9998 1.32938V17.7467C49.9997 12.4216 45.4867 9.18302 40.9998 6.53509Z" stroke="url(#paint0_linear)" stroke-width="2" mask="url(#path-1-inside-1)"/>
<path d="M40.9998 6.53509L47.5757 0.391215C48.4702 -0.444512 49.9998 0.147386 49.9998 1.32938V17.7467C49.9997 12.4216 45.4867 9.18302 40.9998 6.53509Z" stroke="url(#paint1_linear)" stroke-width="2" mask="url(#path-1-inside-1)"/>
<path d="M40.9998 6.53509L47.5757 0.391215C48.4702 -0.444512 49.9998 0.147386 49.9998 1.32938V17.7467C49.9997 12.4216 45.4867 9.18302 40.9998 6.53509Z" stroke="url(#paint2_linear)" stroke-width="2" mask="url(#path-1-inside-1)"/>
<path d="M40.9998 6.53509L47.5757 0.391215C48.4702 -0.444512 49.9998 0.147386 49.9998 1.32938V17.7467C49.9997 12.4216 45.4867 9.18302 40.9998 6.53509Z" stroke="url(#paint3_linear)" stroke-width="2" mask="url(#path-1-inside-1)"/>
<mask id="path-2-inside-2" fill="white">
<path d="M49.9999 17.7469C49.9999 26.0029 42.8365 32.6956 34 32.6956C25.1636 32.6956 18.0001 26.0028 18.0001 17.7469C18.0001 9.49097 25.1635 3.73242 34 3.73242C42.8366 3.73242 49.9999 9.49087 49.9999 17.7469Z"/>
</mask>
<path d="M49.9999 17.7469C49.9999 26.0029 42.8365 32.6956 34 32.6956C25.1636 32.6956 18.0001 26.0028 18.0001 17.7469C18.0001 9.49097 25.1635 3.73242 34 3.73242C42.8366 3.73242 49.9999 9.49087 49.9999 17.7469Z" fill="#FFAA50"/>
<path d="M49.9999 17.7469C49.9999 26.0029 42.8365 32.6956 34 32.6956C25.1636 32.6956 18.0001 26.0028 18.0001 17.7469C18.0001 9.49097 25.1635 3.73242 34 3.73242C42.8366 3.73242 49.9999 9.49087 49.9999 17.7469Z" stroke="white" stroke-width="2" mask="url(#path-2-inside-2)"/>
<path d="M49.9999 17.7469C49.9999 26.0029 42.8365 32.6956 34 32.6956C25.1636 32.6956 18.0001 26.0028 18.0001 17.7469C18.0001 9.49097 25.1635 3.73242 34 3.73242C42.8366 3.73242 49.9999 9.49087 49.9999 17.7469Z" stroke="url(#paint4_linear)" stroke-width="2" mask="url(#path-2-inside-2)"/>
<path d="M49.9999 17.7469C49.9999 26.0029 42.8365 32.6956 34 32.6956C25.1636 32.6956 18.0001 26.0028 18.0001 17.7469C18.0001 9.49097 25.1635 3.73242 34 3.73242C42.8366 3.73242 49.9999 9.49087 49.9999 17.7469Z" stroke="url(#paint5_linear)" stroke-width="2" mask="url(#path-2-inside-2)"/>
<path d="M49.9999 17.7469C49.9999 26.0029 42.8365 32.6956 34 32.6956C25.1636 32.6956 18.0001 26.0028 18.0001 17.7469C18.0001 9.49097 25.1635 3.73242 34 3.73242C42.8366 3.73242 49.9999 9.49087 49.9999 17.7469Z" stroke="url(#paint6_linear)" stroke-width="2" mask="url(#path-2-inside-2)"/>
<path d="M49.9999 17.7469C49.9999 26.0029 42.8365 32.6956 34 32.6956C25.1636 32.6956 18.0001 26.0028 18.0001 17.7469C18.0001 9.49097 25.1635 3.73242 34 3.73242C42.8366 3.73242 49.9999 9.49087 49.9999 17.7469Z" stroke="url(#paint7_linear)" stroke-width="2" mask="url(#path-2-inside-2)"/>
<mask id="path-3-inside-3" fill="white">
<path d="M26.9999 17.7467C26.9999 10.5516 31.4217 5.25668 37.3102 4.01383C36.2416 3.83064 35.1353 3.73222 33.9999 3.73222C31.0555 3.73222 28.3062 4.38359 25.9365 5.54157L20.424 0.391215C19.5295 -0.444512 17.9999 0.147386 17.9999 1.32938V17.7467C17.9999 17.4097 17.9999 17.4115 17.9999 17.7467C17.9999 26.0027 25.1633 32.6954 33.9998 32.6954C35.1353 32.6954 36.2416 32.5812 37.3101 32.3711C31.4217 30.9459 26.9999 24.9416 26.9999 17.7467Z"/>
</mask>
<path d="M26.9999 17.7467C26.9999 10.5516 31.4217 5.25668 37.3102 4.01383C36.2416 3.83064 35.1353 3.73222 33.9999 3.73222C31.0555 3.73222 28.3062 4.38359 25.9365 5.54157L20.424 0.391215C19.5295 -0.444512 17.9999 0.147386 17.9999 1.32938V17.7467C17.9999 17.4097 17.9999 17.4115 17.9999 17.7467C17.9999 26.0027 25.1633 32.6954 33.9998 32.6954C35.1353 32.6954 36.2416 32.5812 37.3101 32.3711C31.4217 30.9459 26.9999 24.9416 26.9999 17.7467Z" fill="#FF7236"/>
<path d="M26.9999 17.7467C26.9999 10.5516 31.4217 5.25668 37.3102 4.01383C36.2416 3.83064 35.1353 3.73222 33.9999 3.73222C31.0555 3.73222 28.3062 4.38359 25.9365 5.54157L20.424 0.391215C19.5295 -0.444512 17.9999 0.147386 17.9999 1.32938V17.7467C17.9999 17.4097 17.9999 17.4115 17.9999 17.7467C17.9999 26.0027 25.1633 32.6954 33.9998 32.6954C35.1353 32.6954 36.2416 32.5812 37.3101 32.3711C31.4217 30.9459 26.9999 24.9416 26.9999 17.7467Z" stroke="white" stroke-width="2" mask="url(#path-3-inside-3)"/>
<path d="M26.9999 17.7467C26.9999 10.5516 31.4217 5.25668 37.3102 4.01383C36.2416 3.83064 35.1353 3.73222 33.9999 3.73222C31.0555 3.73222 28.3062 4.38359 25.9365 5.54157L20.424 0.391215C19.5295 -0.444512 17.9999 0.147386 17.9999 1.32938V17.7467C17.9999 17.4097 17.9999 17.4115 17.9999 17.7467C17.9999 26.0027 25.1633 32.6954 33.9998 32.6954C35.1353 32.6954 36.2416 32.5812 37.3101 32.3711C31.4217 30.9459 26.9999 24.9416 26.9999 17.7467Z" stroke="url(#paint8_linear)" stroke-width="2" mask="url(#path-3-inside-3)"/>
<path d="M26.9999 17.7467C26.9999 10.5516 31.4217 5.25668 37.3102 4.01383C36.2416 3.83064 35.1353 3.73222 33.9999 3.73222C31.0555 3.73222 28.3062 4.38359 25.9365 5.54157L20.424 0.391215C19.5295 -0.444512 17.9999 0.147386 17.9999 1.32938V17.7467C17.9999 17.4097 17.9999 17.4115 17.9999 17.7467C17.9999 26.0027 25.1633 32.6954 33.9998 32.6954C35.1353 32.6954 36.2416 32.5812 37.3101 32.3711C31.4217 30.9459 26.9999 24.9416 26.9999 17.7467Z" stroke="url(#paint9_linear)" stroke-width="2" mask="url(#path-3-inside-3)"/>
<path d="M26.9999 17.7467C26.9999 10.5516 31.4217 5.25668 37.3102 4.01383C36.2416 3.83064 35.1353 3.73222 33.9999 3.73222C31.0555 3.73222 28.3062 4.38359 25.9365 5.54157L20.424 0.391215C19.5295 -0.444512 17.9999 0.147386 17.9999 1.32938V17.7467C17.9999 17.4097 17.9999 17.4115 17.9999 17.7467C17.9999 26.0027 25.1633 32.6954 33.9998 32.6954C35.1353 32.6954 36.2416 32.5812 37.3101 32.3711C31.4217 30.9459 26.9999 24.9416 26.9999 17.7467Z" stroke="url(#paint10_linear)" stroke-width="2" mask="url(#path-3-inside-3)"/>
<path d="M26.9999 17.7467C26.9999 10.5516 31.4217 5.25668 37.3102 4.01383C36.2416 3.83064 35.1353 3.73222 33.9999 3.73222C31.0555 3.73222 28.3062 4.38359 25.9365 5.54157L20.424 0.391215C19.5295 -0.444512 17.9999 0.147386 17.9999 1.32938V17.7467C17.9999 17.4097 17.9999 17.4115 17.9999 17.7467C17.9999 26.0027 25.1633 32.6954 33.9998 32.6954C35.1353 32.6954 36.2416 32.5812 37.3101 32.3711C31.4217 30.9459 26.9999 24.9416 26.9999 17.7467Z" stroke="url(#paint11_linear)" stroke-width="2" mask="url(#path-3-inside-3)"/>
<mask id="path-4-inside-4" fill="white">
<path d="M30.4998 27.0895C32.4328 27.0895 33.9998 25.8346 33.9998 24.2866C33.9998 22.7387 32.4328 21.4838 30.4998 21.4838C28.5669 21.4838 26.9999 22.7387 26.9999 24.2866C26.9999 25.8346 28.5669 27.0895 30.4998 27.0895Z"/>
</mask>
<path d="M30.4998 27.0895C32.4328 27.0895 33.9998 25.8346 33.9998 24.2866C33.9998 22.7387 32.4328 21.4838 30.4998 21.4838C28.5669 21.4838 26.9999 22.7387 26.9999 24.2866C26.9999 25.8346 28.5669 27.0895 30.4998 27.0895Z" fill="#FFFDFB"/>
<path d="M30.4998 27.0895C32.4328 27.0895 33.9998 25.8346 33.9998 24.2866C33.9998 22.7387 32.4328 21.4838 30.4998 21.4838C28.5669 21.4838 26.9999 22.7387 26.9999 24.2866C26.9999 25.8346 28.5669 27.0895 30.4998 27.0895Z" stroke="white" stroke-width="2" mask="url(#path-4-inside-4)"/>
<path d="M30.4998 27.0895C32.4328 27.0895 33.9998 25.8346 33.9998 24.2866C33.9998 22.7387 32.4328 21.4838 30.4998 21.4838C28.5669 21.4838 26.9999 22.7387 26.9999 24.2866C26.9999 25.8346 28.5669 27.0895 30.4998 27.0895Z" stroke="url(#paint12_linear)" stroke-width="2" mask="url(#path-4-inside-4)"/>
<path d="M30.4998 27.0895C32.4328 27.0895 33.9998 25.8346 33.9998 24.2866C33.9998 22.7387 32.4328 21.4838 30.4998 21.4838C28.5669 21.4838 26.9999 22.7387 26.9999 24.2866C26.9999 25.8346 28.5669 27.0895 30.4998 27.0895Z" stroke="url(#paint13_linear)" stroke-width="2" mask="url(#path-4-inside-4)"/>
<path d="M30.4998 27.0895C32.4328 27.0895 33.9998 25.8346 33.9998 24.2866C33.9998 22.7387 32.4328 21.4838 30.4998 21.4838C28.5669 21.4838 26.9999 22.7387 26.9999 24.2866C26.9999 25.8346 28.5669 27.0895 30.4998 27.0895Z" stroke="url(#paint14_linear)" stroke-width="2" mask="url(#path-4-inside-4)"/>
<path d="M30.4998 27.0895C32.4328 27.0895 33.9998 25.8346 33.9998 24.2866C33.9998 22.7387 32.4328 21.4838 30.4998 21.4838C28.5669 21.4838 26.9999 22.7387 26.9999 24.2866C26.9999 25.8346 28.5669 27.0895 30.4998 27.0895Z" stroke="url(#paint15_linear)" stroke-width="2" mask="url(#path-4-inside-4)"/>
<mask id="path-5-inside-5" fill="white">
<path d="M37.5001 27.0895C39.433 27.0895 41 25.8346 41 24.2866C41 22.7387 39.433 21.4838 37.5001 21.4838C35.5671 21.4838 34.0001 22.7387 34.0001 24.2866C34.0001 25.8346 35.5671 27.0895 37.5001 27.0895Z"/>
</mask>
<path d="M37.5001 27.0895C39.433 27.0895 41 25.8346 41 24.2866C41 22.7387 39.433 21.4838 37.5001 21.4838C35.5671 21.4838 34.0001 22.7387 34.0001 24.2866C34.0001 25.8346 35.5671 27.0895 37.5001 27.0895Z" fill="#FFFDFB"/>
<path d="M37.5001 27.0895C39.433 27.0895 41 25.8346 41 24.2866C41 22.7387 39.433 21.4838 37.5001 21.4838C35.5671 21.4838 34.0001 22.7387 34.0001 24.2866C34.0001 25.8346 35.5671 27.0895 37.5001 27.0895Z" stroke="white" stroke-width="2" mask="url(#path-5-inside-5)"/>
<path d="M37.5001 27.0895C39.433 27.0895 41 25.8346 41 24.2866C41 22.7387 39.433 21.4838 37.5001 21.4838C35.5671 21.4838 34.0001 22.7387 34.0001 24.2866C34.0001 25.8346 35.5671 27.0895 37.5001 27.0895Z" stroke="url(#paint16_linear)" stroke-width="2" mask="url(#path-5-inside-5)"/>
<path d="M37.5001 27.0895C39.433 27.0895 41 25.8346 41 24.2866C41 22.7387 39.433 21.4838 37.5001 21.4838C35.5671 21.4838 34.0001 22.7387 34.0001 24.2866C34.0001 25.8346 35.5671 27.0895 37.5001 27.0895Z" stroke="url(#paint17_linear)" stroke-width="2" mask="url(#path-5-inside-5)"/>
<path d="M37.5001 27.0895C39.433 27.0895 41 25.8346 41 24.2866C41 22.7387 39.433 21.4838 37.5001 21.4838C35.5671 21.4838 34.0001 22.7387 34.0001 24.2866C34.0001 25.8346 35.5671 27.0895 37.5001 27.0895Z" stroke="url(#paint18_linear)" stroke-width="2" mask="url(#path-5-inside-5)"/>
<path d="M37.5001 27.0895C39.433 27.0895 41 25.8346 41 24.2866C41 22.7387 39.433 21.4838 37.5001 21.4838C35.5671 21.4838 34.0001 22.7387 34.0001 24.2866C34.0001 25.8346 35.5671 27.0895 37.5001 27.0895Z" stroke="url(#paint19_linear)" stroke-width="2" mask="url(#path-5-inside-5)"/>
<mask id="path-6-inside-6" fill="white">
<path d="M34.0001 24.2873C35.1047 24.2873 36.0001 23.4507 36.0001 22.4187C36.0001 21.3867 35.1047 20.55 34.0001 20.55C32.8955 20.55 32.0001 21.3867 32.0001 22.4187C32.0001 23.4507 32.8955 24.2873 34.0001 24.2873Z"/>
</mask>
<path d="M34.0001 24.2873C35.1047 24.2873 36.0001 23.4507 36.0001 22.4187C36.0001 21.3867 35.1047 20.55 34.0001 20.55C32.8955 20.55 32.0001 21.3867 32.0001 22.4187C32.0001 23.4507 32.8955 24.2873 34.0001 24.2873Z" fill="#FF913C"/>
<path d="M34.0001 24.2873C35.1047 24.2873 36.0001 23.4507 36.0001 22.4187C36.0001 21.3867 35.1047 20.55 34.0001 20.55C32.8955 20.55 32.0001 21.3867 32.0001 22.4187C32.0001 23.4507 32.8955 24.2873 34.0001 24.2873Z" stroke="white" stroke-width="2" mask="url(#path-6-inside-6)"/>
<path d="M34.0001 24.2873C35.1047 24.2873 36.0001 23.4507 36.0001 22.4187C36.0001 21.3867 35.1047 20.55 34.0001 20.55C32.8955 20.55 32.0001 21.3867 32.0001 22.4187C32.0001 23.4507 32.8955 24.2873 34.0001 24.2873Z" stroke="url(#paint20_linear)" stroke-width="2" mask="url(#path-6-inside-6)"/>
<path d="M34.0001 24.2873C35.1047 24.2873 36.0001 23.4507 36.0001 22.4187C36.0001 21.3867 35.1047 20.55 34.0001 20.55C32.8955 20.55 32.0001 21.3867 32.0001 22.4187C32.0001 23.4507 32.8955 24.2873 34.0001 24.2873Z" stroke="url(#paint21_linear)" stroke-width="2" mask="url(#path-6-inside-6)"/>
<path d="M34.0001 24.2873C35.1047 24.2873 36.0001 23.4507 36.0001 22.4187C36.0001 21.3867 35.1047 20.55 34.0001 20.55C32.8955 20.55 32.0001 21.3867 32.0001 22.4187C32.0001 23.4507 32.8955 24.2873 34.0001 24.2873Z" stroke="url(#paint22_linear)" stroke-width="2" mask="url(#path-6-inside-6)"/>
<path d="M34.0001 24.2873C35.1047 24.2873 36.0001 23.4507 36.0001 22.4187C36.0001 21.3867 35.1047 20.55 34.0001 20.55C32.8955 20.55 32.0001 21.3867 32.0001 22.4187C32.0001 23.4507 32.8955 24.2873 34.0001 24.2873Z" stroke="url(#paint23_linear)" stroke-width="2" mask="url(#path-6-inside-6)"/>
<mask id="path-7-inside-7" fill="white">
<path d="M28.0001 18.6809C27.4473 18.6809 27.0001 18.2626 27.0001 17.7467V16.8124C27.0001 16.2965 27.4474 15.8782 28.0001 15.8782C28.5527 15.8782 29 16.2965 29 16.8124V17.7467C29 18.2626 28.5527 18.6809 28.0001 18.6809Z"/>
</mask>
<path d="M28.0001 18.6809C27.4473 18.6809 27.0001 18.2626 27.0001 17.7467V16.8124C27.0001 16.2965 27.4474 15.8782 28.0001 15.8782C28.5527 15.8782 29 16.2965 29 16.8124V17.7467C29 18.2626 28.5527 18.6809 28.0001 18.6809Z" fill="#1A212F"/>
<path d="M28.0001 18.6809C27.4473 18.6809 27.0001 18.2626 27.0001 17.7467V16.8124C27.0001 16.2965 27.4474 15.8782 28.0001 15.8782C28.5527 15.8782 29 16.2965 29 16.8124V17.7467C29 18.2626 28.5527 18.6809 28.0001 18.6809Z" stroke="white" stroke-width="2" mask="url(#path-7-inside-7)"/>
<path d="M28.0001 18.6809C27.4473 18.6809 27.0001 18.2626 27.0001 17.7467V16.8124C27.0001 16.2965 27.4474 15.8782 28.0001 15.8782C28.5527 15.8782 29 16.2965 29 16.8124V17.7467C29 18.2626 28.5527 18.6809 28.0001 18.6809Z" stroke="url(#paint24_linear)" stroke-width="2" mask="url(#path-7-inside-7)"/>
<path d="M28.0001 18.6809C27.4473 18.6809 27.0001 18.2626 27.0001 17.7467V16.8124C27.0001 16.2965 27.4474 15.8782 28.0001 15.8782C28.5527 15.8782 29 16.2965 29 16.8124V17.7467C29 18.2626 28.5527 18.6809 28.0001 18.6809Z" stroke="url(#paint25_linear)" stroke-width="2" mask="url(#path-7-inside-7)"/>
<path d="M28.0001 18.6809C27.4473 18.6809 27.0001 18.2626 27.0001 17.7467V16.8124C27.0001 16.2965 27.4474 15.8782 28.0001 15.8782C28.5527 15.8782 29 16.2965 29 16.8124V17.7467C29 18.2626 28.5527 18.6809 28.0001 18.6809Z" stroke="url(#paint26_linear)" stroke-width="2" mask="url(#path-7-inside-7)"/>
<path d="M28.0001 18.6809C27.4473 18.6809 27.0001 18.2626 27.0001 17.7467V16.8124C27.0001 16.2965 27.4474 15.8782 28.0001 15.8782C28.5527 15.8782 29 16.2965 29 16.8124V17.7467C29 18.2626 28.5527 18.6809 28.0001 18.6809Z" stroke="url(#paint27_linear)" stroke-width="2" mask="url(#path-7-inside-7)"/>
<mask id="path-8-inside-8" fill="white">
<path d="M39.9998 18.6809C39.4471 18.6809 38.9999 18.2626 38.9999 17.7467V16.8124C38.9999 16.2965 39.4472 15.8782 39.9998 15.8782C40.5526 15.8782 40.9998 16.2965 40.9998 16.8124V17.7467C40.9999 18.2626 40.5526 18.6809 39.9998 18.6809Z"/>
</mask>
<path d="M39.9998 18.6809C39.4471 18.6809 38.9999 18.2626 38.9999 17.7467V16.8124C38.9999 16.2965 39.4472 15.8782 39.9998 15.8782C40.5526 15.8782 40.9998 16.2965 40.9998 16.8124V17.7467C40.9999 18.2626 40.5526 18.6809 39.9998 18.6809Z" fill="#1A212F"/>
<path d="M39.9998 18.6809C39.4471 18.6809 38.9999 18.2626 38.9999 17.7467V16.8124C38.9999 16.2965 39.4472 15.8782 39.9998 15.8782C40.5526 15.8782 40.9998 16.2965 40.9998 16.8124V17.7467C40.9999 18.2626 40.5526 18.6809 39.9998 18.6809Z" stroke="white" stroke-width="2" mask="url(#path-8-inside-8)"/>
<path d="M39.9998 18.6809C39.4471 18.6809 38.9999 18.2626 38.9999 17.7467V16.8124C38.9999 16.2965 39.4472 15.8782 39.9998 15.8782C40.5526 15.8782 40.9998 16.2965 40.9998 16.8124V17.7467C40.9999 18.2626 40.5526 18.6809 39.9998 18.6809Z" stroke="url(#paint28_linear)" stroke-width="2" mask="url(#path-8-inside-8)"/>
<path d="M39.9998 18.6809C39.4471 18.6809 38.9999 18.2626 38.9999 17.7467V16.8124C38.9999 16.2965 39.4472 15.8782 39.9998 15.8782C40.5526 15.8782 40.9998 16.2965 40.9998 16.8124V17.7467C40.9999 18.2626 40.5526 18.6809 39.9998 18.6809Z" stroke="url(#paint29_linear)" stroke-width="2" mask="url(#path-8-inside-8)"/>
<path d="M39.9998 18.6809C39.4471 18.6809 38.9999 18.2626 38.9999 17.7467V16.8124C38.9999 16.2965 39.4472 15.8782 39.9998 15.8782C40.5526 15.8782 40.9998 16.2965 40.9998 16.8124V17.7467C40.9999 18.2626 40.5526 18.6809 39.9998 18.6809Z" stroke="url(#paint30_linear)" stroke-width="2" mask="url(#path-8-inside-8)"/>
<path d="M39.9998 18.6809C39.4471 18.6809 38.9999 18.2626 38.9999 17.7467V16.8124C38.9999 16.2965 39.4472 15.8782 39.9998 15.8782C40.5526 15.8782 40.9998 16.2965 40.9998 16.8124V17.7467C40.9999 18.2626 40.5526 18.6809 39.9998 18.6809Z" stroke="url(#paint31_linear)" stroke-width="2" mask="url(#path-8-inside-8)"/>
<mask id="path-9-outside-9" maskUnits="userSpaceOnUse" x="0" y="33.5" width="67" height="17" fill="black">
<rect fill="white" y="33.5" width="67" height="17"/>
<path d="M9.8994 45.2928C9.8188 44.3847 9.23843 43.4917 7.64243 43.416C8.62583 43.2949 9.98001 41.1759 9.39965 39.6018C8.91601 38.3304 7.4651 38.8299 6.61067 39.072C6.44946 40.2829 6.82025 42.5079 5.38546 42.7954C5.32097 42.1597 5.44994 41.1002 5.27261 39.9953C4.93406 38.1639 2.54812 39.0115 2 39.2385C2.20958 41.2667 2.17733 41.8116 2.17733 44.2485C2.19345 45.0809 2.09673 46.3977 2.17733 47.1091C2.40303 49.0011 4.80509 48.5016 5.46607 47.8508C5.46607 47.0486 5.44994 45.4139 5.40158 44.5058C6.46558 44.4301 6.65904 44.7177 6.69128 46.8367C6.7074 48.9557 9.38353 48.5622 10.1735 47.8356C9.89941 47.0486 9.98001 46.0496 9.8994 45.2928Z"/>
<path d="M11.298 43.7338C11.298 48.1232 13.7162 48.4865 15.409 48.4411C16.9727 48.4411 19.536 48.0324 19.5521 43.7338C19.536 40.0559 17.7949 38.7542 15.4573 38.7542C12.9908 38.7542 11.298 40.1769 11.298 43.7338ZM15.4573 41.2213C15.6347 41.2213 16.3118 40.9791 16.3118 43.6279C16.3118 45.3534 16.0216 46.3372 15.4412 46.3372C14.9576 46.3372 14.5707 45.9285 14.619 43.6279C14.619 41.5392 15.1833 41.2213 15.4573 41.2213Z"/>
<path d="M22.8692 41.5392C22.8692 42.4019 22.8531 43.3555 22.9014 46.2918C22.9175 47.4724 22.9659 48.4411 24.4168 48.4108C25.7065 48.4108 26.029 47.9265 26.174 47.7751C26.2224 46.4583 26.1257 43.5825 26.0934 41.5846C26.4481 41.5846 26.7866 41.5846 27.093 41.5694C28.1247 41.5392 28.4794 40.964 28.4633 40.1618C28.4471 39.2537 27.6572 38.7693 26.561 38.7693H23.4979C21.0636 38.7845 20.9024 38.7845 20.7089 38.7693C20.2575 40.5553 20.5316 41.5089 22.3855 41.5392H22.8692Z"/>
<path d="M35.1037 38.8299C33.9752 38.7239 31.2507 38.7693 29.3645 38.845C29.5741 40.8581 29.5902 43.4463 29.558 45.2777C29.5902 47.0334 29.429 48.2594 31.3958 48.3805C32.6855 48.4713 33.411 48.4713 34.5717 48.3805C36.1516 48.2594 36.7964 47.4572 36.0387 45.7015C34.7329 45.8831 33.5238 45.9285 32.7661 45.7923C32.7661 45.5804 32.7339 44.9144 32.7661 44.7479C33.4916 44.7479 34.2815 44.7177 34.9747 44.7177C36.4095 44.7177 36.2644 42.5533 34.9586 42.5533C34.0236 42.5079 33.6044 42.5987 32.7339 42.523V41.3273C33.7173 41.2516 34.1525 41.297 34.9747 41.3273C36.5224 41.3727 36.5224 39.1326 35.1037 38.8299Z"/>
<path d="M40.1396 35.5303C39.0756 36.1811 39.14 37.1649 39.8977 37.7552C40.7522 38.3304 42.4288 38.1488 43.5573 37.6795C44.589 37.2406 44.9921 36.2417 43.8958 35.5C42.2676 36.3022 41.1874 35.8935 40.1396 35.5303ZM45.8787 40.1164C45.8787 39.2083 45.2661 38.7693 44.2988 38.7693C43.1704 38.7693 42.59 39.0418 42.2514 40.0105C41.8484 41.191 41.2519 43.0073 40.9134 44.2636C40.9134 43.7187 41.0101 40.5099 41.0101 40.1164C41.0101 39.1174 40.4459 38.7693 39.4947 38.7693C38.8337 38.7693 37.6569 39.1629 37.6569 39.1629C37.7536 39.844 37.8342 40.2375 37.8503 41.1305C37.8826 42.0689 37.8503 43.5674 37.9471 46.534C37.9954 47.987 38.4952 48.4713 39.7527 48.4259C42.0096 48.3503 42.1547 44.4452 42.7673 43.0225C42.7673 43.6733 42.7351 45.9285 42.7351 46.6853C42.7351 47.7146 42.8318 48.4259 44.1054 48.4259C45.2016 48.4259 45.8304 48.0778 46.0238 47.76C45.8948 47.3059 45.8465 44.5512 45.8465 42.3868C45.8465 41.4332 45.8626 40.6007 45.8787 40.1164Z"/>
<path d="M55.2183 45.2928C55.1377 44.3847 54.5574 43.4917 52.9614 43.416C53.9448 43.2949 55.2989 41.1759 54.7186 39.6018C54.2349 38.3304 52.784 38.8299 51.9296 39.072C51.7684 40.2829 52.1392 42.5079 50.7044 42.7954C50.6399 42.1597 50.7689 41.1002 50.5915 39.9953C50.253 38.1639 47.867 39.0115 47.3189 39.2385C47.5285 41.2667 47.4963 41.8116 47.4963 44.2485C47.5124 45.0809 47.4157 46.3977 47.4963 47.1091C47.722 49.0011 50.124 48.5016 50.785 47.8508C50.785 47.0486 50.7689 45.4139 50.7205 44.5058C51.7845 44.4301 51.978 44.7177 52.0102 46.8367C52.0263 48.9557 54.7025 48.5622 55.4924 47.8356C55.2183 47.0486 55.2989 46.0496 55.2183 45.2928Z"/>
<path d="M65 47.7751C64.7743 47.1848 64.7904 46.8972 64.7421 46.0496C64.6131 43.8398 64.5809 41.7057 63.807 40.2375C62.5012 38.0731 59.1319 38.6634 57.5036 39.7531C57.3586 42.3716 56.8749 43.4463 56.5686 46.3675C56.3429 48.5016 58.2452 49.0919 60.0186 48.0475C60.0186 47.7902 60.0186 46.8972 60.0992 46.6853C60.3087 46.6853 61.0987 46.7005 61.405 46.7005C61.405 46.7005 61.3244 47.5783 61.7758 48.0475C62.5818 48.9103 64.4358 48.653 65 47.7751ZM60.212 44.7934C60.3249 43.976 60.3249 42.2808 60.3732 41.9176C60.4538 41.857 61.0019 41.8873 61.0664 41.963C61.2599 42.6743 61.2599 43.976 61.3083 44.7934H60.212Z"/>
</mask>
<path d="M9.8994 45.2928C9.8188 44.3847 9.23843 43.4917 7.64243 43.416C8.62583 43.2949 9.98001 41.1759 9.39965 39.6018C8.91601 38.3304 7.4651 38.8299 6.61067 39.072C6.44946 40.2829 6.82025 42.5079 5.38546 42.7954C5.32097 42.1597 5.44994 41.1002 5.27261 39.9953C4.93406 38.1639 2.54812 39.0115 2 39.2385C2.20958 41.2667 2.17733 41.8116 2.17733 44.2485C2.19345 45.0809 2.09673 46.3977 2.17733 47.1091C2.40303 49.0011 4.80509 48.5016 5.46607 47.8508C5.46607 47.0486 5.44994 45.4139 5.40158 44.5058C6.46558 44.4301 6.65904 44.7177 6.69128 46.8367C6.7074 48.9557 9.38353 48.5622 10.1735 47.8356C9.89941 47.0486 9.98001 46.0496 9.8994 45.2928Z" fill="#1A212F"/>
<path d="M11.298 43.7338C11.298 48.1232 13.7162 48.4865 15.409 48.4411C16.9727 48.4411 19.536 48.0324 19.5521 43.7338C19.536 40.0559 17.7949 38.7542 15.4573 38.7542C12.9908 38.7542 11.298 40.1769 11.298 43.7338ZM15.4573 41.2213C15.6347 41.2213 16.3118 40.9791 16.3118 43.6279C16.3118 45.3534 16.0216 46.3372 15.4412 46.3372C14.9576 46.3372 14.5707 45.9285 14.619 43.6279C14.619 41.5392 15.1833 41.2213 15.4573 41.2213Z" fill="#1A212F"/>
<path d="M22.8692 41.5392C22.8692 42.4019 22.8531 43.3555 22.9014 46.2918C22.9175 47.4724 22.9659 48.4411 24.4168 48.4108C25.7065 48.4108 26.029 47.9265 26.174 47.7751C26.2224 46.4583 26.1257 43.5825 26.0934 41.5846C26.4481 41.5846 26.7866 41.5846 27.093 41.5694C28.1247 41.5392 28.4794 40.964 28.4633 40.1618C28.4471 39.2537 27.6572 38.7693 26.561 38.7693H23.4979C21.0636 38.7845 20.9024 38.7845 20.7089 38.7693C20.2575 40.5553 20.5316 41.5089 22.3855 41.5392H22.8692Z" fill="#1A212F"/>
<path d="M35.1037 38.8299C33.9752 38.7239 31.2507 38.7693 29.3645 38.845C29.5741 40.8581 29.5902 43.4463 29.558 45.2777C29.5902 47.0334 29.429 48.2594 31.3958 48.3805C32.6855 48.4713 33.411 48.4713 34.5717 48.3805C36.1516 48.2594 36.7964 47.4572 36.0387 45.7015C34.7329 45.8831 33.5238 45.9285 32.7661 45.7923C32.7661 45.5804 32.7339 44.9144 32.7661 44.7479C33.4916 44.7479 34.2815 44.7177 34.9747 44.7177C36.4095 44.7177 36.2644 42.5533 34.9586 42.5533C34.0236 42.5079 33.6044 42.5987 32.7339 42.523V41.3273C33.7173 41.2516 34.1525 41.297 34.9747 41.3273C36.5224 41.3727 36.5224 39.1326 35.1037 38.8299Z" fill="#1A212F"/>
<path d="M40.1396 35.5303C39.0756 36.1811 39.14 37.1649 39.8977 37.7552C40.7522 38.3304 42.4288 38.1488 43.5573 37.6795C44.589 37.2406 44.9921 36.2417 43.8958 35.5C42.2676 36.3022 41.1874 35.8935 40.1396 35.5303ZM45.8787 40.1164C45.8787 39.2083 45.2661 38.7693 44.2988 38.7693C43.1704 38.7693 42.59 39.0418 42.2514 40.0105C41.8484 41.191 41.2519 43.0073 40.9134 44.2636C40.9134 43.7187 41.0101 40.5099 41.0101 40.1164C41.0101 39.1174 40.4459 38.7693 39.4947 38.7693C38.8337 38.7693 37.6569 39.1629 37.6569 39.1629C37.7536 39.844 37.8342 40.2375 37.8503 41.1305C37.8826 42.0689 37.8503 43.5674 37.9471 46.534C37.9954 47.987 38.4952 48.4713 39.7527 48.4259C42.0096 48.3503 42.1547 44.4452 42.7673 43.0225C42.7673 43.6733 42.7351 45.9285 42.7351 46.6853C42.7351 47.7146 42.8318 48.4259 44.1054 48.4259C45.2016 48.4259 45.8304 48.0778 46.0238 47.76C45.8948 47.3059 45.8465 44.5512 45.8465 42.3868C45.8465 41.4332 45.8626 40.6007 45.8787 40.1164Z" fill="#1A212F"/>
<path d="M55.2183 45.2928C55.1377 44.3847 54.5574 43.4917 52.9614 43.416C53.9448 43.2949 55.2989 41.1759 54.7186 39.6018C54.2349 38.3304 52.784 38.8299 51.9296 39.072C51.7684 40.2829 52.1392 42.5079 50.7044 42.7954C50.6399 42.1597 50.7689 41.1002 50.5915 39.9953C50.253 38.1639 47.867 39.0115 47.3189 39.2385C47.5285 41.2667 47.4963 41.8116 47.4963 44.2485C47.5124 45.0809 47.4157 46.3977 47.4963 47.1091C47.722 49.0011 50.124 48.5016 50.785 47.8508C50.785 47.0486 50.7689 45.4139 50.7205 44.5058C51.7845 44.4301 51.978 44.7177 52.0102 46.8367C52.0263 48.9557 54.7025 48.5622 55.4924 47.8356C55.2183 47.0486 55.2989 46.0496 55.2183 45.2928Z" fill="#1A212F"/>
<path d="M65 47.7751C64.7743 47.1848 64.7904 46.8972 64.7421 46.0496C64.6131 43.8398 64.5809 41.7057 63.807 40.2375C62.5012 38.0731 59.1319 38.6634 57.5036 39.7531C57.3586 42.3716 56.8749 43.4463 56.5686 46.3675C56.3429 48.5016 58.2452 49.0919 60.0186 48.0475C60.0186 47.7902 60.0186 46.8972 60.0992 46.6853C60.3087 46.6853 61.0987 46.7005 61.405 46.7005C61.405 46.7005 61.3244 47.5783 61.7758 48.0475C62.5818 48.9103 64.4358 48.653 65 47.7751ZM60.212 44.7934C60.3249 43.976 60.3249 42.2808 60.3732 41.9176C60.4538 41.857 61.0019 41.8873 61.0664 41.963C61.2599 42.6743 61.2599 43.976 61.3083 44.7934H60.212Z" fill="#1A212F"/>
<path d="M9.8994 45.2928C9.8188 44.3847 9.23843 43.4917 7.64243 43.416C8.62583 43.2949 9.98001 41.1759 9.39965 39.6018C8.91601 38.3304 7.4651 38.8299 6.61067 39.072C6.44946 40.2829 6.82025 42.5079 5.38546 42.7954C5.32097 42.1597 5.44994 41.1002 5.27261 39.9953C4.93406 38.1639 2.54812 39.0115 2 39.2385C2.20958 41.2667 2.17733 41.8116 2.17733 44.2485C2.19345 45.0809 2.09673 46.3977 2.17733 47.1091C2.40303 49.0011 4.80509 48.5016 5.46607 47.8508C5.46607 47.0486 5.44994 45.4139 5.40158 44.5058C6.46558 44.4301 6.65904 44.7177 6.69128 46.8367C6.7074 48.9557 9.38353 48.5622 10.1735 47.8356C9.89941 47.0486 9.98001 46.0496 9.8994 45.2928Z" stroke="white" stroke-width="2" mask="url(#path-9-outside-9)"/>
<path d="M9.8994 45.2928C9.8188 44.3847 9.23843 43.4917 7.64243 43.416C8.62583 43.2949 9.98001 41.1759 9.39965 39.6018C8.91601 38.3304 7.4651 38.8299 6.61067 39.072C6.44946 40.2829 6.82025 42.5079 5.38546 42.7954C5.32097 42.1597 5.44994 41.1002 5.27261 39.9953C4.93406 38.1639 2.54812 39.0115 2 39.2385C2.20958 41.2667 2.17733 41.8116 2.17733 44.2485C2.19345 45.0809 2.09673 46.3977 2.17733 47.1091C2.40303 49.0011 4.80509 48.5016 5.46607 47.8508C5.46607 47.0486 5.44994 45.4139 5.40158 44.5058C6.46558 44.4301 6.65904 44.7177 6.69128 46.8367C6.7074 48.9557 9.38353 48.5622 10.1735 47.8356C9.89941 47.0486 9.98001 46.0496 9.8994 45.2928Z" stroke="url(#paint32_linear)" stroke-width="2" mask="url(#path-9-outside-9)"/>
<path d="M9.8994 45.2928C9.8188 44.3847 9.23843 43.4917 7.64243 43.416C8.62583 43.2949 9.98001 41.1759 9.39965 39.6018C8.91601 38.3304 7.4651 38.8299 6.61067 39.072C6.44946 40.2829 6.82025 42.5079 5.38546 42.7954C5.32097 42.1597 5.44994 41.1002 5.27261 39.9953C4.93406 38.1639 2.54812 39.0115 2 39.2385C2.20958 41.2667 2.17733 41.8116 2.17733 44.2485C2.19345 45.0809 2.09673 46.3977 2.17733 47.1091C2.40303 49.0011 4.80509 48.5016 5.46607 47.8508C5.46607 47.0486 5.44994 45.4139 5.40158 44.5058C6.46558 44.4301 6.65904 44.7177 6.69128 46.8367C6.7074 48.9557 9.38353 48.5622 10.1735 47.8356C9.89941 47.0486 9.98001 46.0496 9.8994 45.2928Z" stroke="url(#paint33_linear)" stroke-width="2" mask="url(#path-9-outside-9)"/>
<path d="M9.8994 45.2928C9.8188 44.3847 9.23843 43.4917 7.64243 43.416C8.62583 43.2949 9.98001 41.1759 9.39965 39.6018C8.91601 38.3304 7.4651 38.8299 6.61067 39.072C6.44946 40.2829 6.82025 42.5079 5.38546 42.7954C5.32097 42.1597 5.44994 41.1002 5.27261 39.9953C4.93406 38.1639 2.54812 39.0115 2 39.2385C2.20958 41.2667 2.17733 41.8116 2.17733 44.2485C2.19345 45.0809 2.09673 46.3977 2.17733 47.1091C2.40303 49.0011 4.80509 48.5016 5.46607 47.8508C5.46607 47.0486 5.44994 45.4139 5.40158 44.5058C6.46558 44.4301 6.65904 44.7177 6.69128 46.8367C6.7074 48.9557 9.38353 48.5622 10.1735 47.8356C9.89941 47.0486 9.98001 46.0496 9.8994 45.2928Z" stroke="url(#paint34_linear)" stroke-width="2" mask="url(#path-9-outside-9)"/>
<path d="M9.8994 45.2928C9.8188 44.3847 9.23843 43.4917 7.64243 43.416C8.62583 43.2949 9.98001 41.1759 9.39965 39.6018C8.91601 38.3304 7.4651 38.8299 6.61067 39.072C6.44946 40.2829 6.82025 42.5079 5.38546 42.7954C5.32097 42.1597 5.44994 41.1002 5.27261 39.9953C4.93406 38.1639 2.54812 39.0115 2 39.2385C2.20958 41.2667 2.17733 41.8116 2.17733 44.2485C2.19345 45.0809 2.09673 46.3977 2.17733 47.1091C2.40303 49.0011 4.80509 48.5016 5.46607 47.8508C5.46607 47.0486 5.44994 45.4139 5.40158 44.5058C6.46558 44.4301 6.65904 44.7177 6.69128 46.8367C6.7074 48.9557 9.38353 48.5622 10.1735 47.8356C9.89941 47.0486 9.98001 46.0496 9.8994 45.2928Z" stroke="url(#paint35_linear)" stroke-width="2" mask="url(#path-9-outside-9)"/>
<path d="M11.298 43.7338C11.298 48.1232 13.7162 48.4865 15.409 48.4411C16.9727 48.4411 19.536 48.0324 19.5521 43.7338C19.536 40.0559 17.7949 38.7542 15.4573 38.7542C12.9908 38.7542 11.298 40.1769 11.298 43.7338ZM15.4573 41.2213C15.6347 41.2213 16.3118 40.9791 16.3118 43.6279C16.3118 45.3534 16.0216 46.3372 15.4412 46.3372C14.9576 46.3372 14.5707 45.9285 14.619 43.6279C14.619 41.5392 15.1833 41.2213 15.4573 41.2213Z" stroke="white" stroke-width="2" mask="url(#path-9-outside-9)"/>
<path d="M11.298 43.7338C11.298 48.1232 13.7162 48.4865 15.409 48.4411C16.9727 48.4411 19.536 48.0324 19.5521 43.7338C19.536 40.0559 17.7949 38.7542 15.4573 38.7542C12.9908 38.7542 11.298 40.1769 11.298 43.7338ZM15.4573 41.2213C15.6347 41.2213 16.3118 40.9791 16.3118 43.6279C16.3118 45.3534 16.0216 46.3372 15.4412 46.3372C14.9576 46.3372 14.5707 45.9285 14.619 43.6279C14.619 41.5392 15.1833 41.2213 15.4573 41.2213Z" stroke="url(#paint36_linear)" stroke-width="2" mask="url(#path-9-outside-9)"/>
<path d="M11.298 43.7338C11.298 48.1232 13.7162 48.4865 15.409 48.4411C16.9727 48.4411 19.536 48.0324 19.5521 43.7338C19.536 40.0559 17.7949 38.7542 15.4573 38.7542C12.9908 38.7542 11.298 40.1769 11.298 43.7338ZM15.4573 41.2213C15.6347 41.2213 16.3118 40.9791 16.3118 43.6279C16.3118 45.3534 16.0216 46.3372 15.4412 46.3372C14.9576 46.3372 14.5707 45.9285 14.619 43.6279C14.619 41.5392 15.1833 41.2213 15.4573 41.2213Z" stroke="url(#paint37_linear)" stroke-width="2" mask="url(#path-9-outside-9)"/>
<path d="M11.298 43.7338C11.298 48.1232 13.7162 48.4865 15.409 48.4411C16.9727 48.4411 19.536 48.0324 19.5521 43.7338C19.536 40.0559 17.7949 38.7542 15.4573 38.7542C12.9908 38.7542 11.298 40.1769 11.298 43.7338ZM15.4573 41.2213C15.6347 41.2213 16.3118 40.9791 16.3118 43.6279C16.3118 45.3534 16.0216 46.3372 15.4412 46.3372C14.9576 46.3372 14.5707 45.9285 14.619 43.6279C14.619 41.5392 15.1833 41.2213 15.4573 41.2213Z" stroke="url(#paint38_linear)" stroke-width="2" mask="url(#path-9-outside-9)"/>
<path d="M11.298 43.7338C11.298 48.1232 13.7162 48.4865 15.409 48.4411C16.9727 48.4411 19.536 48.0324 19.5521 43.7338C19.536 40.0559 17.7949 38.7542 15.4573 38.7542C12.9908 38.7542 11.298 40.1769 11.298 43.7338ZM15.4573 41.2213C15.6347 41.2213 16.3118 40.9791 16.3118 43.6279C16.3118 45.3534 16.0216 46.3372 15.4412 46.3372C14.9576 46.3372 14.5707 45.9285 14.619 43.6279C14.619 41.5392 15.1833 41.2213 15.4573 41.2213Z" stroke="url(#paint39_linear)" stroke-width="2" mask="url(#path-9-outside-9)"/>
<path d="M22.8692 41.5392C22.8692 42.4019 22.8531 43.3555 22.9014 46.2918C22.9175 47.4724 22.9659 48.4411 24.4168 48.4108C25.7065 48.4108 26.029 47.9265 26.174 47.7751C26.2224 46.4583 26.1257 43.5825 26.0934 41.5846C26.4481 41.5846 26.7866 41.5846 27.093 41.5694C28.1247 41.5392 28.4794 40.964 28.4633 40.1618C28.4471 39.2537 27.6572 38.7693 26.561 38.7693H23.4979C21.0636 38.7845 20.9024 38.7845 20.7089 38.7693C20.2575 40.5553 20.5316 41.5089 22.3855 41.5392H22.8692Z" stroke="white" stroke-width="2" mask="url(#path-9-outside-9)"/>
<path d="M22.8692 41.5392C22.8692 42.4019 22.8531 43.3555 22.9014 46.2918C22.9175 47.4724 22.9659 48.4411 24.4168 48.4108C25.7065 48.4108 26.029 47.9265 26.174 47.7751C26.2224 46.4583 26.1257 43.5825 26.0934 41.5846C26.4481 41.5846 26.7866 41.5846 27.093 41.5694C28.1247 41.5392 28.4794 40.964 28.4633 40.1618C28.4471 39.2537 27.6572 38.7693 26.561 38.7693H23.4979C21.0636 38.7845 20.9024 38.7845 20.7089 38.7693C20.2575 40.5553 20.5316 41.5089 22.3855 41.5392H22.8692Z" stroke="url(#paint40_linear)" stroke-width="2" mask="url(#path-9-outside-9)"/>
<path d="M22.8692 41.5392C22.8692 42.4019 22.8531 43.3555 22.9014 46.2918C22.9175 47.4724 22.9659 48.4411 24.4168 48.4108C25.7065 48.4108 26.029 47.9265 26.174 47.7751C26.2224 46.4583 26.1257 43.5825 26.0934 41.5846C26.4481 41.5846 26.7866 41.5846 27.093 41.5694C28.1247 41.5392 28.4794 40.964 28.4633 40.1618C28.4471 39.2537 27.6572 38.7693 26.561 38.7693H23.4979C21.0636 38.7845 20.9024 38.7845 20.7089 38.7693C20.2575 40.5553 20.5316 41.5089 22.3855 41.5392H22.8692Z" stroke="url(#paint41_linear)" stroke-width="2" mask="url(#path-9-outside-9)"/>
<path d="M22.8692 41.5392C22.8692 42.4019 22.8531 43.3555 22.9014 46.2918C22.9175 47.4724 22.9659 48.4411 24.4168 48.4108C25.7065 48.4108 26.029 47.9265 26.174 47.7751C26.2224 46.4583 26.1257 43.5825 26.0934 41.5846C26.4481 41.5846 26.7866 41.5846 27.093 41.5694C28.1247 41.5392 28.4794 40.964 28.4633 40.1618C28.4471 39.2537 27.6572 38.7693 26.561 38.7693H23.4979C21.0636 38.7845 20.9024 38.7845 20.7089 38.7693C20.2575 40.5553 20.5316 41.5089 22.3855 41.5392H22.8692Z" stroke="url(#paint42_linear)" stroke-width="2" mask="url(#path-9-outside-9)"/>
<path d="M22.8692 41.5392C22.8692 42.4019 22.8531 43.3555 22.9014 46.2918C22.9175 47.4724 22.9659 48.4411 24.4168 48.4108C25.7065 48.4108 26.029 47.9265 26.174 47.7751C26.2224 46.4583 26.1257 43.5825 26.0934 41.5846C26.4481 41.5846 26.7866 41.5846 27.093 41.5694C28.1247 41.5392 28.4794 40.964 28.4633 40.1618C28.4471 39.2537 27.6572 38.7693 26.561 38.7693H23.4979C21.0636 38.7845 20.9024 38.7845 20.7089 38.7693C20.2575 40.5553 20.5316 41.5089 22.3855 41.5392H22.8692Z" stroke="url(#paint43_linear)" stroke-width="2" mask="url(#path-9-outside-9)"/>
<path d="M35.1037 38.8299C33.9752 38.7239 31.2507 38.7693 29.3645 38.845C29.5741 40.8581 29.5902 43.4463 29.558 45.2777C29.5902 47.0334 29.429 48.2594 31.3958 48.3805C32.6855 48.4713 33.411 48.4713 34.5717 48.3805C36.1516 48.2594 36.7964 47.4572 36.0387 45.7015C34.7329 45.8831 33.5238 45.9285 32.7661 45.7923C32.7661 45.5804 32.7339 44.9144 32.7661 44.7479C33.4916 44.7479 34.2815 44.7177 34.9747 44.7177C36.4095 44.7177 36.2644 42.5533 34.9586 42.5533C34.0236 42.5079 33.6044 42.5987 32.7339 42.523V41.3273C33.7173 41.2516 34.1525 41.297 34.9747 41.3273C36.5224 41.3727 36.5224 39.1326 35.1037 38.8299Z" stroke="white" stroke-width="2" mask="url(#path-9-outside-9)"/>
<path d="M35.1037 38.8299C33.9752 38.7239 31.2507 38.7693 29.3645 38.845C29.5741 40.8581 29.5902 43.4463 29.558 45.2777C29.5902 47.0334 29.429 48.2594 31.3958 48.3805C32.6855 48.4713 33.411 48.4713 34.5717 48.3805C36.1516 48.2594 36.7964 47.4572 36.0387 45.7015C34.7329 45.8831 33.5238 45.9285 32.7661 45.7923C32.7661 45.5804 32.7339 44.9144 32.7661 44.7479C33.4916 44.7479 34.2815 44.7177 34.9747 44.7177C36.4095 44.7177 36.2644 42.5533 34.9586 42.5533C34.0236 42.5079 33.6044 42.5987 32.7339 42.523V41.3273C33.7173 41.2516 34.1525 41.297 34.9747 41.3273C36.5224 41.3727 36.5224 39.1326 35.1037 38.8299Z" stroke="url(#paint44_linear)" stroke-width="2" mask="url(#path-9-outside-9)"/>
<path d="M35.1037 38.8299C33.9752 38.7239 31.2507 38.7693 29.3645 38.845C29.5741 40.8581 29.5902 43.4463 29.558 45.2777C29.5902 47.0334 29.429 48.2594 31.3958 48.3805C32.6855 48.4713 33.411 48.4713 34.5717 48.3805C36.1516 48.2594 36.7964 47.4572 36.0387 45.7015C34.7329 45.8831 33.5238 45.9285 32.7661 45.7923C32.7661 45.5804 32.7339 44.9144 32.7661 44.7479C33.4916 44.7479 34.2815 44.7177 34.9747 44.7177C36.4095 44.7177 36.2644 42.5533 34.9586 42.5533C34.0236 42.5079 33.6044 42.5987 32.7339 42.523V41.3273C33.7173 41.2516 34.1525 41.297 34.9747 41.3273C36.5224 41.3727 36.5224 39.1326 35.1037 38.8299Z" stroke="url(#paint45_linear)" stroke-width="2" mask="url(#path-9-outside-9)"/>
<path d="M35.1037 38.8299C33.9752 38.7239 31.2507 38.7693 29.3645 38.845C29.5741 40.8581 29.5902 43.4463 29.558 45.2777C29.5902 47.0334 29.429 48.2594 31.3958 48.3805C32.6855 48.4713 33.411 48.4713 34.5717 48.3805C36.1516 48.2594 36.7964 47.4572 36.0387 45.7015C34.7329 45.8831 33.5238 45.9285 32.7661 45.7923C32.7661 45.5804 32.7339 44.9144 32.7661 44.7479C33.4916 44.7479 34.2815 44.7177 34.9747 44.7177C36.4095 44.7177 36.2644 42.5533 34.9586 42.5533C34.0236 42.5079 33.6044 42.5987 32.7339 42.523V41.3273C33.7173 41.2516 34.1525 41.297 34.9747 41.3273C36.5224 41.3727 36.5224 39.1326 35.1037 38.8299Z" stroke="url(#paint46_linear)" stroke-width="2" mask="url(#path-9-outside-9)"/>
<path d="M35.1037 38.8299C33.9752 38.7239 31.2507 38.7693 29.3645 38.845C29.5741 40.8581 29.5902 43.4463 29.558 45.2777C29.5902 47.0334 29.429 48.2594 31.3958 48.3805C32.6855 48.4713 33.411 48.4713 34.5717 48.3805C36.1516 48.2594 36.7964 47.4572 36.0387 45.7015C34.7329 45.8831 33.5238 45.9285 32.7661 45.7923C32.7661 45.5804 32.7339 44.9144 32.7661 44.7479C33.4916 44.7479 34.2815 44.7177 34.9747 44.7177C36.4095 44.7177 36.2644 42.5533 34.9586 42.5533C34.0236 42.5079 33.6044 42.5987 32.7339 42.523V41.3273C33.7173 41.2516 34.1525 41.297 34.9747 41.3273C36.5224 41.3727 36.5224 39.1326 35.1037 38.8299Z" stroke="url(#paint47_linear)" stroke-width="2" mask="url(#path-9-outside-9)"/>
<path d="M40.1396 35.5303C39.0756 36.1811 39.14 37.1649 39.8977 37.7552C40.7522 38.3304 42.4288 38.1488 43.5573 37.6795C44.589 37.2406 44.9921 36.2417 43.8958 35.5C42.2676 36.3022 41.1874 35.8935 40.1396 35.5303ZM45.8787 40.1164C45.8787 39.2083 45.2661 38.7693 44.2988 38.7693C43.1704 38.7693 42.59 39.0418 42.2514 40.0105C41.8484 41.191 41.2519 43.0073 40.9134 44.2636C40.9134 43.7187 41.0101 40.5099 41.0101 40.1164C41.0101 39.1174 40.4459 38.7693 39.4947 38.7693C38.8337 38.7693 37.6569 39.1629 37.6569 39.1629C37.7536 39.844 37.8342 40.2375 37.8503 41.1305C37.8826 42.0689 37.8503 43.5674 37.9471 46.534C37.9954 47.987 38.4952 48.4713 39.7527 48.4259C42.0096 48.3503 42.1547 44.4452 42.7673 43.0225C42.7673 43.6733 42.7351 45.9285 42.7351 46.6853C42.7351 47.7146 42.8318 48.4259 44.1054 48.4259C45.2016 48.4259 45.8304 48.0778 46.0238 47.76C45.8948 47.3059 45.8465 44.5512 45.8465 42.3868C45.8465 41.4332 45.8626 40.6007 45.8787 40.1164Z" stroke="white" stroke-width="2" mask="url(#path-9-outside-9)"/>
<path d="M40.1396 35.5303C39.0756 36.1811 39.14 37.1649 39.8977 37.7552C40.7522 38.3304 42.4288 38.1488 43.5573 37.6795C44.589 37.2406 44.9921 36.2417 43.8958 35.5C42.2676 36.3022 41.1874 35.8935 40.1396 35.5303ZM45.8787 40.1164C45.8787 39.2083 45.2661 38.7693 44.2988 38.7693C43.1704 38.7693 42.59 39.0418 42.2514 40.0105C41.8484 41.191 41.2519 43.0073 40.9134 44.2636C40.9134 43.7187 41.0101 40.5099 41.0101 40.1164C41.0101 39.1174 40.4459 38.7693 39.4947 38.7693C38.8337 38.7693 37.6569 39.1629 37.6569 39.1629C37.7536 39.844 37.8342 40.2375 37.8503 41.1305C37.8826 42.0689 37.8503 43.5674 37.9471 46.534C37.9954 47.987 38.4952 48.4713 39.7527 48.4259C42.0096 48.3503 42.1547 44.4452 42.7673 43.0225C42.7673 43.6733 42.7351 45.9285 42.7351 46.6853C42.7351 47.7146 42.8318 48.4259 44.1054 48.4259C45.2016 48.4259 45.8304 48.0778 46.0238 47.76C45.8948 47.3059 45.8465 44.5512 45.8465 42.3868C45.8465 41.4332 45.8626 40.6007 45.8787 40.1164Z" stroke="url(#paint48_linear)" stroke-width="2" mask="url(#path-9-outside-9)"/>
<path d="M40.1396 35.5303C39.0756 36.1811 39.14 37.1649 39.8977 37.7552C40.7522 38.3304 42.4288 38.1488 43.5573 37.6795C44.589 37.2406 44.9921 36.2417 43.8958 35.5C42.2676 36.3022 41.1874 35.8935 40.1396 35.5303ZM45.8787 40.1164C45.8787 39.2083 45.2661 38.7693 44.2988 38.7693C43.1704 38.7693 42.59 39.0418 42.2514 40.0105C41.8484 41.191 41.2519 43.0073 40.9134 44.2636C40.9134 43.7187 41.0101 40.5099 41.0101 40.1164C41.0101 39.1174 40.4459 38.7693 39.4947 38.7693C38.8337 38.7693 37.6569 39.1629 37.6569 39.1629C37.7536 39.844 37.8342 40.2375 37.8503 41.1305C37.8826 42.0689 37.8503 43.5674 37.9471 46.534C37.9954 47.987 38.4952 48.4713 39.7527 48.4259C42.0096 48.3503 42.1547 44.4452 42.7673 43.0225C42.7673 43.6733 42.7351 45.9285 42.7351 46.6853C42.7351 47.7146 42.8318 48.4259 44.1054 48.4259C45.2016 48.4259 45.8304 48.0778 46.0238 47.76C45.8948 47.3059 45.8465 44.5512 45.8465 42.3868C45.8465 41.4332 45.8626 40.6007 45.8787 40.1164Z" stroke="url(#paint49_linear)" stroke-width="2" mask="url(#path-9-outside-9)"/>
<path d="M40.1396 35.5303C39.0756 36.1811 39.14 37.1649 39.8977 37.7552C40.7522 38.3304 42.4288 38.1488 43.5573 37.6795C44.589 37.2406 44.9921 36.2417 43.8958 35.5C42.2676 36.3022 41.1874 35.8935 40.1396 35.5303ZM45.8787 40.1164C45.8787 39.2083 45.2661 38.7693 44.2988 38.7693C43.1704 38.7693 42.59 39.0418 42.2514 40.0105C41.8484 41.191 41.2519 43.0073 40.9134 44.2636C40.9134 43.7187 41.0101 40.5099 41.0101 40.1164C41.0101 39.1174 40.4459 38.7693 39.4947 38.7693C38.8337 38.7693 37.6569 39.1629 37.6569 39.1629C37.7536 39.844 37.8342 40.2375 37.8503 41.1305C37.8826 42.0689 37.8503 43.5674 37.9471 46.534C37.9954 47.987 38.4952 48.4713 39.7527 48.4259C42.0096 48.3503 42.1547 44.4452 42.7673 43.0225C42.7673 43.6733 42.7351 45.9285 42.7351 46.6853C42.7351 47.7146 42.8318 48.4259 44.1054 48.4259C45.2016 48.4259 45.8304 48.0778 46.0238 47.76C45.8948 47.3059 45.8465 44.5512 45.8465 42.3868C45.8465 41.4332 45.8626 40.6007 45.8787 40.1164Z" stroke="url(#paint50_linear)" stroke-width="2" mask="url(#path-9-outside-9)"/>
<path d="M40.1396 35.5303C39.0756 36.1811 39.14 37.1649 39.8977 37.7552C40.7522 38.3304 42.4288 38.1488 43.5573 37.6795C44.589 37.2406 44.9921 36.2417 43.8958 35.5C42.2676 36.3022 41.1874 35.8935 40.1396 35.5303ZM45.8787 40.1164C45.8787 39.2083 45.2661 38.7693 44.2988 38.7693C43.1704 38.7693 42.59 39.0418 42.2514 40.0105C41.8484 41.191 41.2519 43.0073 40.9134 44.2636C40.9134 43.7187 41.0101 40.5099 41.0101 40.1164C41.0101 39.1174 40.4459 38.7693 39.4947 38.7693C38.8337 38.7693 37.6569 39.1629 37.6569 39.1629C37.7536 39.844 37.8342 40.2375 37.8503 41.1305C37.8826 42.0689 37.8503 43.5674 37.9471 46.534C37.9954 47.987 38.4952 48.4713 39.7527 48.4259C42.0096 48.3503 42.1547 44.4452 42.7673 43.0225C42.7673 43.6733 42.7351 45.9285 42.7351 46.6853C42.7351 47.7146 42.8318 48.4259 44.1054 48.4259C45.2016 48.4259 45.8304 48.0778 46.0238 47.76C45.8948 47.3059 45.8465 44.5512 45.8465 42.3868C45.8465 41.4332 45.8626 40.6007 45.8787 40.1164Z" stroke="url(#paint51_linear)" stroke-width="2" mask="url(#path-9-outside-9)"/>
<path d="M55.2183 45.2928C55.1377 44.3847 54.5574 43.4917 52.9614 43.416C53.9448 43.2949 55.2989 41.1759 54.7186 39.6018C54.2349 38.3304 52.784 38.8299 51.9296 39.072C51.7684 40.2829 52.1392 42.5079 50.7044 42.7954C50.6399 42.1597 50.7689 41.1002 50.5915 39.9953C50.253 38.1639 47.867 39.0115 47.3189 39.2385C47.5285 41.2667 47.4963 41.8116 47.4963 44.2485C47.5124 45.0809 47.4157 46.3977 47.4963 47.1091C47.722 49.0011 50.124 48.5016 50.785 47.8508C50.785 47.0486 50.7689 45.4139 50.7205 44.5058C51.7845 44.4301 51.978 44.7177 52.0102 46.8367C52.0263 48.9557 54.7025 48.5622 55.4924 47.8356C55.2183 47.0486 55.2989 46.0496 55.2183 45.2928Z" stroke="white" stroke-width="2" mask="url(#path-9-outside-9)"/>
<path d="M55.2183 45.2928C55.1377 44.3847 54.5574 43.4917 52.9614 43.416C53.9448 43.2949 55.2989 41.1759 54.7186 39.6018C54.2349 38.3304 52.784 38.8299 51.9296 39.072C51.7684 40.2829 52.1392 42.5079 50.7044 42.7954C50.6399 42.1597 50.7689 41.1002 50.5915 39.9953C50.253 38.1639 47.867 39.0115 47.3189 39.2385C47.5285 41.2667 47.4963 41.8116 47.4963 44.2485C47.5124 45.0809 47.4157 46.3977 47.4963 47.1091C47.722 49.0011 50.124 48.5016 50.785 47.8508C50.785 47.0486 50.7689 45.4139 50.7205 44.5058C51.7845 44.4301 51.978 44.7177 52.0102 46.8367C52.0263 48.9557 54.7025 48.5622 55.4924 47.8356C55.2183 47.0486 55.2989 46.0496 55.2183 45.2928Z" stroke="url(#paint52_linear)" stroke-width="2" mask="url(#path-9-outside-9)"/>
<path d="M55.2183 45.2928C55.1377 44.3847 54.5574 43.4917 52.9614 43.416C53.9448 43.2949 55.2989 41.1759 54.7186 39.6018C54.2349 38.3304 52.784 38.8299 51.9296 39.072C51.7684 40.2829 52.1392 42.5079 50.7044 42.7954C50.6399 42.1597 50.7689 41.1002 50.5915 39.9953C50.253 38.1639 47.867 39.0115 47.3189 39.2385C47.5285 41.2667 47.4963 41.8116 47.4963 44.2485C47.5124 45.0809 47.4157 46.3977 47.4963 47.1091C47.722 49.0011 50.124 48.5016 50.785 47.8508C50.785 47.0486 50.7689 45.4139 50.7205 44.5058C51.7845 44.4301 51.978 44.7177 52.0102 46.8367C52.0263 48.9557 54.7025 48.5622 55.4924 47.8356C55.2183 47.0486 55.2989 46.0496 55.2183 45.2928Z" stroke="url(#paint53_linear)" stroke-width="2" mask="url(#path-9-outside-9)"/>
<path d="M55.2183 45.2928C55.1377 44.3847 54.5574 43.4917 52.9614 43.416C53.9448 43.2949 55.2989 41.1759 54.7186 39.6018C54.2349 38.3304 52.784 38.8299 51.9296 39.072C51.7684 40.2829 52.1392 42.5079 50.7044 42.7954C50.6399 42.1597 50.7689 41.1002 50.5915 39.9953C50.253 38.1639 47.867 39.0115 47.3189 39.2385C47.5285 41.2667 47.4963 41.8116 47.4963 44.2485C47.5124 45.0809 47.4157 46.3977 47.4963 47.1091C47.722 49.0011 50.124 48.5016 50.785 47.8508C50.785 47.0486 50.7689 45.4139 50.7205 44.5058C51.7845 44.4301 51.978 44.7177 52.0102 46.8367C52.0263 48.9557 54.7025 48.5622 55.4924 47.8356C55.2183 47.0486 55.2989 46.0496 55.2183 45.2928Z" stroke="url(#paint54_linear)" stroke-width="2" mask="url(#path-9-outside-9)"/>
<path d="M55.2183 45.2928C55.1377 44.3847 54.5574 43.4917 52.9614 43.416C53.9448 43.2949 55.2989 41.1759 54.7186 39.6018C54.2349 38.3304 52.784 38.8299 51.9296 39.072C51.7684 40.2829 52.1392 42.5079 50.7044 42.7954C50.6399 42.1597 50.7689 41.1002 50.5915 39.9953C50.253 38.1639 47.867 39.0115 47.3189 39.2385C47.5285 41.2667 47.4963 41.8116 47.4963 44.2485C47.5124 45.0809 47.4157 46.3977 47.4963 47.1091C47.722 49.0011 50.124 48.5016 50.785 47.8508C50.785 47.0486 50.7689 45.4139 50.7205 44.5058C51.7845 44.4301 51.978 44.7177 52.0102 46.8367C52.0263 48.9557 54.7025 48.5622 55.4924 47.8356C55.2183 47.0486 55.2989 46.0496 55.2183 45.2928Z" stroke="url(#paint55_linear)" stroke-width="2" mask="url(#path-9-outside-9)"/>
<path d="M65 47.7751C64.7743 47.1848 64.7904 46.8972 64.7421 46.0496C64.6131 43.8398 64.5809 41.7057 63.807 40.2375C62.5012 38.0731 59.1319 38.6634 57.5036 39.7531C57.3586 42.3716 56.8749 43.4463 56.5686 46.3675C56.3429 48.5016 58.2452 49.0919 60.0186 48.0475C60.0186 47.7902 60.0186 46.8972 60.0992 46.6853C60.3087 46.6853 61.0987 46.7005 61.405 46.7005C61.405 46.7005 61.3244 47.5783 61.7758 48.0475C62.5818 48.9103 64.4358 48.653 65 47.7751ZM60.212 44.7934C60.3249 43.976 60.3249 42.2808 60.3732 41.9176C60.4538 41.857 61.0019 41.8873 61.0664 41.963C61.2599 42.6743 61.2599 43.976 61.3083 44.7934H60.212Z" stroke="white" stroke-width="2" mask="url(#path-9-outside-9)"/>
<path d="M65 47.7751C64.7743 47.1848 64.7904 46.8972 64.7421 46.0496C64.6131 43.8398 64.5809 41.7057 63.807 40.2375C62.5012 38.0731 59.1319 38.6634 57.5036 39.7531C57.3586 42.3716 56.8749 43.4463 56.5686 46.3675C56.3429 48.5016 58.2452 49.0919 60.0186 48.0475C60.0186 47.7902 60.0186 46.8972 60.0992 46.6853C60.3087 46.6853 61.0987 46.7005 61.405 46.7005C61.405 46.7005 61.3244 47.5783 61.7758 48.0475C62.5818 48.9103 64.4358 48.653 65 47.7751ZM60.212 44.7934C60.3249 43.976 60.3249 42.2808 60.3732 41.9176C60.4538 41.857 61.0019 41.8873 61.0664 41.963C61.2599 42.6743 61.2599 43.976 61.3083 44.7934H60.212Z" stroke="url(#paint56_linear)" stroke-width="2" mask="url(#path-9-outside-9)"/>
<path d="M65 47.7751C64.7743 47.1848 64.7904 46.8972 64.7421 46.0496C64.6131 43.8398 64.5809 41.7057 63.807 40.2375C62.5012 38.0731 59.1319 38.6634 57.5036 39.7531C57.3586 42.3716 56.8749 43.4463 56.5686 46.3675C56.3429 48.5016 58.2452 49.0919 60.0186 48.0475C60.0186 47.7902 60.0186 46.8972 60.0992 46.6853C60.3087 46.6853 61.0987 46.7005 61.405 46.7005C61.405 46.7005 61.3244 47.5783 61.7758 48.0475C62.5818 48.9103 64.4358 48.653 65 47.7751ZM60.212 44.7934C60.3249 43.976 60.3249 42.2808 60.3732 41.9176C60.4538 41.857 61.0019 41.8873 61.0664 41.963C61.2599 42.6743 61.2599 43.976 61.3083 44.7934H60.212Z" stroke="url(#paint57_linear)" stroke-width="2" mask="url(#path-9-outside-9)"/>
<path d="M65 47.7751C64.7743 47.1848 64.7904 46.8972 64.7421 46.0496C64.6131 43.8398 64.5809 41.7057 63.807 40.2375C62.5012 38.0731 59.1319 38.6634 57.5036 39.7531C57.3586 42.3716 56.8749 43.4463 56.5686 46.3675C56.3429 48.5016 58.2452 49.0919 60.0186 48.0475C60.0186 47.7902 60.0186 46.8972 60.0992 46.6853C60.3087 46.6853 61.0987 46.7005 61.405 46.7005C61.405 46.7005 61.3244 47.5783 61.7758 48.0475C62.5818 48.9103 64.4358 48.653 65 47.7751ZM60.212 44.7934C60.3249 43.976 60.3249 42.2808 60.3732 41.9176C60.4538 41.857 61.0019 41.8873 61.0664 41.963C61.2599 42.6743 61.2599 43.976 61.3083 44.7934H60.212Z" stroke="url(#paint58_linear)" stroke-width="2" mask="url(#path-9-outside-9)"/>
<path d="M65 47.7751C64.7743 47.1848 64.7904 46.8972 64.7421 46.0496C64.6131 43.8398 64.5809 41.7057 63.807 40.2375C62.5012 38.0731 59.1319 38.6634 57.5036 39.7531C57.3586 42.3716 56.8749 43.4463 56.5686 46.3675C56.3429 48.5016 58.2452 49.0919 60.0186 48.0475C60.0186 47.7902 60.0186 46.8972 60.0992 46.6853C60.3087 46.6853 61.0987 46.7005 61.405 46.7005C61.405 46.7005 61.3244 47.5783 61.7758 48.0475C62.5818 48.9103 64.4358 48.653 65 47.7751ZM60.212 44.7934C60.3249 43.976 60.3249 42.2808 60.3732 41.9176C60.4538 41.857 61.0019 41.8873 61.0664 41.963C61.2599 42.6743 61.2599 43.976 61.3083 44.7934H60.212Z" stroke="url(#paint59_linear)" stroke-width="2" mask="url(#path-9-outside-9)"/>
<defs>
<linearGradient id="paint0_linear" x1="45.4998" y1="0" x2="45.4998" y2="17.7467" gradientUnits="userSpaceOnUse">
<stop stop-color="white"/>
<stop offset="1" stop-color="white" stop-opacity="0"/>
</linearGradient>
<linearGradient id="paint1_linear" x1="45.4998" y1="0" x2="45.4998" y2="17.7467" gradientUnits="userSpaceOnUse">
<stop stop-color="white"/>
<stop offset="1" stop-color="white" stop-opacity="0"/>
</linearGradient>
<linearGradient id="paint2_linear" x1="45.4998" y1="0" x2="45.4998" y2="17.7467" gradientUnits="userSpaceOnUse">
<stop stop-color="white"/>
<stop offset="1" stop-color="white" stop-opacity="0"/>
</linearGradient>
<linearGradient id="paint3_linear" x1="45.4998" y1="0" x2="45.4998" y2="17.7467" gradientUnits="userSpaceOnUse">
<stop stop-color="white"/>
<stop offset="1" stop-color="white" stop-opacity="0"/>
</linearGradient>
<linearGradient id="paint4_linear" x1="34" y1="3.73242" x2="34" y2="32.6956" gradientUnits="userSpaceOnUse">
<stop stop-color="white"/>
<stop offset="1" stop-color="white" stop-opacity="0"/>
</linearGradient>
<linearGradient id="paint5_linear" x1="34" y1="3.73242" x2="34" y2="32.6956" gradientUnits="userSpaceOnUse">
<stop stop-color="white"/>
<stop offset="1" stop-color="white" stop-opacity="0"/>
</linearGradient>
<linearGradient id="paint6_linear" x1="34" y1="3.73242" x2="34" y2="32.6956" gradientUnits="userSpaceOnUse">
<stop stop-color="white"/>
<stop offset="1" stop-color="white" stop-opacity="0"/>
</linearGradient>
<linearGradient id="paint7_linear" x1="34" y1="3.73242" x2="34" y2="32.6956" gradientUnits="userSpaceOnUse">
<stop stop-color="white"/>
<stop offset="1" stop-color="white" stop-opacity="0"/>
</linearGradient>
<linearGradient id="paint8_linear" x1="27.655" y1="0" x2="27.655" y2="32.6954" gradientUnits="userSpaceOnUse">
<stop stop-color="white"/>
<stop offset="1" stop-color="white" stop-opacity="0"/>
</linearGradient>
<linearGradient id="paint9_linear" x1="27.655" y1="0" x2="27.655" y2="32.6954" gradientUnits="userSpaceOnUse">
<stop stop-color="white"/>
<stop offset="1" stop-color="white" stop-opacity="0"/>
</linearGradient>
<linearGradient id="paint10_linear" x1="27.655" y1="0" x2="27.655" y2="32.6954" gradientUnits="userSpaceOnUse">
<stop stop-color="white"/>
<stop offset="1" stop-color="white" stop-opacity="0"/>
</linearGradient>
<linearGradient id="paint11_linear" x1="27.655" y1="0" x2="27.655" y2="32.6954" gradientUnits="userSpaceOnUse">
<stop stop-color="white"/>
<stop offset="1" stop-color="white" stop-opacity="0"/>
</linearGradient>
<linearGradient id="paint12_linear" x1="30.4998" y1="21.4838" x2="30.4998" y2="27.0895" gradientUnits="userSpaceOnUse">
<stop stop-color="white"/>
<stop offset="1" stop-color="white" stop-opacity="0"/>
</linearGradient>
<linearGradient id="paint13_linear" x1="30.4998" y1="21.4838" x2="30.4998" y2="27.0895" gradientUnits="userSpaceOnUse">
<stop stop-color="white"/>
<stop offset="1" stop-color="white" stop-opacity="0"/>
</linearGradient>
<linearGradient id="paint14_linear" x1="30.4998" y1="21.4838" x2="30.4998" y2="27.0895" gradientUnits="userSpaceOnUse">
<stop stop-color="white"/>
<stop offset="1" stop-color="white" stop-opacity="0"/>
</linearGradient>
<linearGradient id="paint15_linear" x1="30.4998" y1="21.4838" x2="30.4998" y2="27.0895" gradientUnits="userSpaceOnUse">
<stop stop-color="white"/>
<stop offset="1" stop-color="white" stop-opacity="0"/>
</linearGradient>
<linearGradient id="paint16_linear" x1="37.5001" y1="21.4838" x2="37.5001" y2="27.0895" gradientUnits="userSpaceOnUse">
<stop stop-color="white"/>
<stop offset="1" stop-color="white" stop-opacity="0"/>
</linearGradient>
<linearGradient id="paint17_linear" x1="37.5001" y1="21.4838" x2="37.5001" y2="27.0895" gradientUnits="userSpaceOnUse">
<stop stop-color="white"/>
<stop offset="1" stop-color="white" stop-opacity="0"/>
</linearGradient>
<linearGradient id="paint18_linear" x1="37.5001" y1="21.4838" x2="37.5001" y2="27.0895" gradientUnits="userSpaceOnUse">
<stop stop-color="white"/>
<stop offset="1" stop-color="white" stop-opacity="0"/>
</linearGradient>
<linearGradient id="paint19_linear" x1="37.5001" y1="21.4838" x2="37.5001" y2="27.0895" gradientUnits="userSpaceOnUse">
<stop stop-color="white"/>
<stop offset="1" stop-color="white" stop-opacity="0"/>
</linearGradient>
<linearGradient id="paint20_linear" x1="34.0001" y1="20.55" x2="34.0001" y2="24.2873" gradientUnits="userSpaceOnUse">
<stop stop-color="white"/>
<stop offset="1" stop-color="white" stop-opacity="0"/>
</linearGradient>
<linearGradient id="paint21_linear" x1="34.0001" y1="20.55" x2="34.0001" y2="24.2873" gradientUnits="userSpaceOnUse">
<stop stop-color="white"/>
<stop offset="1" stop-color="white" stop-opacity="0"/>
</linearGradient>
<linearGradient id="paint22_linear" x1="34.0001" y1="20.55" x2="34.0001" y2="24.2873" gradientUnits="userSpaceOnUse">
<stop stop-color="white"/>
<stop offset="1" stop-color="white" stop-opacity="0"/>
</linearGradient>
<linearGradient id="paint23_linear" x1="34.0001" y1="20.55" x2="34.0001" y2="24.2873" gradientUnits="userSpaceOnUse">
<stop stop-color="white"/>
<stop offset="1" stop-color="white" stop-opacity="0"/>
</linearGradient>
<linearGradient id="paint24_linear" x1="28.0001" y1="15.8782" x2="28.0001" y2="18.6809" gradientUnits="userSpaceOnUse">
<stop stop-color="white"/>
<stop offset="1" stop-color="white" stop-opacity="0"/>
</linearGradient>
<linearGradient id="paint25_linear" x1="28.0001" y1="15.8782" x2="28.0001" y2="18.6809" gradientUnits="userSpaceOnUse">
<stop stop-color="white"/>
<stop offset="1" stop-color="white" stop-opacity="0"/>
</linearGradient>
<linearGradient id="paint26_linear" x1="28.0001" y1="15.8782" x2="28.0001" y2="18.6809" gradientUnits="userSpaceOnUse">
<stop stop-color="white"/>
<stop offset="1" stop-color="white" stop-opacity="0"/>
</linearGradient>
<linearGradient id="paint27_linear" x1="28.0001" y1="15.8782" x2="28.0001" y2="18.6809" gradientUnits="userSpaceOnUse">
<stop stop-color="white"/>
<stop offset="1" stop-color="white" stop-opacity="0"/>
</linearGradient>
<linearGradient id="paint28_linear" x1="39.9998" y1="15.8782" x2="39.9998" y2="18.6809" gradientUnits="userSpaceOnUse">
<stop stop-color="white"/>
<stop offset="1" stop-color="white" stop-opacity="0"/>
</linearGradient>
<linearGradient id="paint29_linear" x1="39.9998" y1="15.8782" x2="39.9998" y2="18.6809" gradientUnits="userSpaceOnUse">
<stop stop-color="white"/>
<stop offset="1" stop-color="white" stop-opacity="0"/>
</linearGradient>
<linearGradient id="paint30_linear" x1="39.9998" y1="15.8782" x2="39.9998" y2="18.6809" gradientUnits="userSpaceOnUse">
<stop stop-color="white"/>
<stop offset="1" stop-color="white" stop-opacity="0"/>
</linearGradient>
<linearGradient id="paint31_linear" x1="39.9998" y1="15.8782" x2="39.9998" y2="18.6809" gradientUnits="userSpaceOnUse">
<stop stop-color="white"/>
<stop offset="1" stop-color="white" stop-opacity="0"/>
</linearGradient>
<linearGradient id="paint32_linear" x1="33.5" y1="35.5" x2="33.5" y2="48.5789" gradientUnits="userSpaceOnUse">
<stop stop-color="white"/>
<stop offset="1" stop-color="white" stop-opacity="0"/>
</linearGradient>
<linearGradient id="paint33_linear" x1="33.5" y1="35.5" x2="33.5" y2="48.5789" gradientUnits="userSpaceOnUse">
<stop stop-color="white"/>
<stop offset="1" stop-color="white" stop-opacity="0"/>
</linearGradient>
<linearGradient id="paint34_linear" x1="33.5" y1="35.5" x2="33.5" y2="48.5789" gradientUnits="userSpaceOnUse">
<stop stop-color="white"/>
<stop offset="1" stop-color="white" stop-opacity="0"/>
</linearGradient>
<linearGradient id="paint35_linear" x1="33.5" y1="35.5" x2="33.5" y2="48.5789" gradientUnits="userSpaceOnUse">
<stop stop-color="white"/>
<stop offset="1" stop-color="white" stop-opacity="0"/>
</linearGradient>
<linearGradient id="paint36_linear" x1="33.5" y1="35.5" x2="33.5" y2="48.5789" gradientUnits="userSpaceOnUse">
<stop stop-color="white"/>
<stop offset="1" stop-color="white" stop-opacity="0"/>
</linearGradient>
<linearGradient id="paint37_linear" x1="33.5" y1="35.5" x2="33.5" y2="48.5789" gradientUnits="userSpaceOnUse">
<stop stop-color="white"/>
<stop offset="1" stop-color="white" stop-opacity="0"/>
</linearGradient>
<linearGradient id="paint38_linear" x1="33.5" y1="35.5" x2="33.5" y2="48.5789" gradientUnits="userSpaceOnUse">
<stop stop-color="white"/>
<stop offset="1" stop-color="white" stop-opacity="0"/>
</linearGradient>
<linearGradient id="paint39_linear" x1="33.5" y1="35.5" x2="33.5" y2="48.5789" gradientUnits="userSpaceOnUse">
<stop stop-color="white"/>
<stop offset="1" stop-color="white" stop-opacity="0"/>
</linearGradient>
<linearGradient id="paint40_linear" x1="33.5" y1="35.5" x2="33.5" y2="48.5789" gradientUnits="userSpaceOnUse">
<stop stop-color="white"/>
<stop offset="1" stop-color="white" stop-opacity="0"/>
</linearGradient>
<linearGradient id="paint41_linear" x1="33.5" y1="35.5" x2="33.5" y2="48.5789" gradientUnits="userSpaceOnUse">
<stop stop-color="white"/>
<stop offset="1" stop-color="white" stop-opacity="0"/>
</linearGradient>
<linearGradient id="paint42_linear" x1="33.5" y1="35.5" x2="33.5" y2="48.5789" gradientUnits="userSpaceOnUse">
<stop stop-color="white"/>
<stop offset="1" stop-color="white" stop-opacity="0"/>
</linearGradient>
<linearGradient id="paint43_linear" x1="33.5" y1="35.5" x2="33.5" y2="48.5789" gradientUnits="userSpaceOnUse">
<stop stop-color="white"/>
<stop offset="1" stop-color="white" stop-opacity="0"/>
</linearGradient>
<linearGradient id="paint44_linear" x1="33.5" y1="35.5" x2="33.5" y2="48.5789" gradientUnits="userSpaceOnUse">
<stop stop-color="white"/>
<stop offset="1" stop-color="white" stop-opacity="0"/>
</linearGradient>
<linearGradient id="paint45_linear" x1="33.5" y1="35.5" x2="33.5" y2="48.5789" gradientUnits="userSpaceOnUse">
<stop stop-color="white"/>
<stop offset="1" stop-color="white" stop-opacity="0"/>
</linearGradient>
<linearGradient id="paint46_linear" x1="33.5" y1="35.5" x2="33.5" y2="48.5789" gradientUnits="userSpaceOnUse">
<stop stop-color="white"/>
<stop offset="1" stop-color="white" stop-opacity="0"/>
</linearGradient>
<linearGradient id="paint47_linear" x1="33.5" y1="35.5" x2="33.5" y2="48.5789" gradientUnits="userSpaceOnUse">
<stop stop-color="white"/>
<stop offset="1" stop-color="white" stop-opacity="0"/>
</linearGradient>
<linearGradient id="paint48_linear" x1="33.5" y1="35.5" x2="33.5" y2="48.5789" gradientUnits="userSpaceOnUse">
<stop stop-color="white"/>
<stop offset="1" stop-color="white" stop-opacity="0"/>
</linearGradient>
<linearGradient id="paint49_linear" x1="33.5" y1="35.5" x2="33.5" y2="48.5789" gradientUnits="userSpaceOnUse">
<stop stop-color="white"/>
<stop offset="1" stop-color="white" stop-opacity="0"/>
</linearGradient>
<linearGradient id="paint50_linear" x1="33.5" y1="35.5" x2="33.5" y2="48.5789" gradientUnits="userSpaceOnUse">
<stop stop-color="white"/>
<stop offset="1" stop-color="white" stop-opacity="0"/>
</linearGradient>
<linearGradient id="paint51_linear" x1="33.5" y1="35.5" x2="33.5" y2="48.5789" gradientUnits="userSpaceOnUse">
<stop stop-color="white"/>
<stop offset="1" stop-color="white" stop-opacity="0"/>
</linearGradient>
<linearGradient id="paint52_linear" x1="33.5" y1="35.5" x2="33.5" y2="48.5789" gradientUnits="userSpaceOnUse">
<stop stop-color="white"/>
<stop offset="1" stop-color="white" stop-opacity="0"/>
</linearGradient>
<linearGradient id="paint53_linear" x1="33.5" y1="35.5" x2="33.5" y2="48.5789" gradientUnits="userSpaceOnUse">
<stop stop-color="white"/>
<stop offset="1" stop-color="white" stop-opacity="0"/>
</linearGradient>
<linearGradient id="paint54_linear" x1="33.5" y1="35.5" x2="33.5" y2="48.5789" gradientUnits="userSpaceOnUse">
<stop stop-color="white"/>
<stop offset="1" stop-color="white" stop-opacity="0"/>
</linearGradient>
<linearGradient id="paint55_linear" x1="33.5" y1="35.5" x2="33.5" y2="48.5789" gradientUnits="userSpaceOnUse">
<stop stop-color="white"/>
<stop offset="1" stop-color="white" stop-opacity="0"/>
</linearGradient>
<linearGradient id="paint56_linear" x1="33.5" y1="35.5" x2="33.5" y2="48.5789" gradientUnits="userSpaceOnUse">
<stop stop-color="white"/>
<stop offset="1" stop-color="white" stop-opacity="0"/>
</linearGradient>
<linearGradient id="paint57_linear" x1="33.5" y1="35.5" x2="33.5" y2="48.5789" gradientUnits="userSpaceOnUse">
<stop stop-color="white"/>
<stop offset="1" stop-color="white" stop-opacity="0"/>
</linearGradient>
<linearGradient id="paint58_linear" x1="33.5" y1="35.5" x2="33.5" y2="48.5789" gradientUnits="userSpaceOnUse">
<stop stop-color="white"/>
<stop offset="1" stop-color="white" stop-opacity="0"/>
</linearGradient>
<linearGradient id="paint59_linear" x1="33.5" y1="35.5" x2="33.5" y2="48.5789" gradientUnits="userSpaceOnUse">
<stop stop-color="white"/>
<stop offset="1" stop-color="white" stop-opacity="0"/>
</linearGradient>
</defs>
</svg>
